<svg width="127" height="124" viewBox="0 0 127 124" fill="none" xmlns="http://www.w3.org/2000/svg">
<circle cx="45" cy="94" r="2" fill="white"/>
<path d="M61.0303 49.612L61.0303 49.612C60.911 54.883 65.0751 59.2569 70.3371 59.3766L70.3371 59.3766C75.6014 59.4962 79.9618 55.3187 80.0811 50.0499C80.2004 44.779 76.0363 40.4051 70.7743 40.2854L70.7743 40.2854C65.51 40.1657 61.1496 44.3433 61.0303 49.612ZM81.4485 50.0821C81.309 56.1168 76.3192 60.8916 70.3053 60.7519C64.2906 60.6123 59.5235 55.6138 59.6629 49.5799C59.8024 43.5452 64.7922 38.7704 70.806 38.91C76.8208 39.0497 81.5879 44.0482 81.4485 50.0821Z" fill="#AA77FF" stroke="#AA77FF" stroke-width="2"/>
<path d="M69.3004 8.37827C70.9709 6.14243 91.0327 14.8664 99.3593 20.8827C108.22 27.2884 117.524 39.3665 112.642 38.3573C106.035 36.9879 84.2411 42.2845 82.2213 38.3573C78.775 26.6074 67.2512 11.1203 69.3004 8.37827Z" fill="#1A1A1A"/>
<path d="M85.5025 57.0637C83.6878 56.9317 81.8641 56.7989 80.2299 56.7011C81.5685 52.8771 81.6184 49.3944 81.6719 45.656C81.6759 45.3752 81.68 45.0929 81.6846 44.8089C84.5301 44.751 87.4056 44.5444 90.2734 44.3279C90.5001 44.3108 90.7268 44.2936 90.9533 44.2765C93.9307 44.0509 96.8984 43.826 99.8625 43.7483L99.8635 43.7483C107.606 43.5373 115.206 43.2437 122.661 42.8677C123.898 45.8517 125.344 50.4242 125.496 56.1385C125.706 64.0296 123.336 70.1528 121.748 73.4346C118.331 73.7091 114.629 73.8697 110.666 73.8422C106.636 73.8134 102.869 73.6094 99.4186 73.2813C97.939 72.9498 97.2871 72.3201 96.9862 71.9578L96.9851 71.9565C96.4952 71.3685 96.2701 70.6574 96.2063 69.781C96.1407 68.88 96.2493 67.8912 96.3728 66.7669L96.3732 66.7633C96.3768 66.7305 96.3804 66.6977 96.3841 66.6647C96.6158 64.5586 96.9056 61.925 95.3011 59.7607L95.3002 59.7596C94.3635 58.4999 93.145 57.8703 92.4849 57.5832L92.3176 57.5103L92.1353 57.5013C90.2118 57.4063 87.8718 57.2361 85.5158 57.0647L85.5025 57.0637Z" fill="url(#paint0_linear_1837_456)" stroke="#AA77FF" stroke-width="2"/>
<path d="M72.3768 65.9345C73.9825 65.1265 75.3001 66.7815 77.9613 66.0481C79.7742 65.5451 81.0271 64.2601 81.8364 63.1925C84.7598 63.2671 87.6864 63.345 90.6097 63.4196C90.2018 64.8085 89.5835 67.6447 90.4964 70.9579C90.791 72.0417 91.8529 75.8968 95.2813 77.925C96.942 78.9147 98.5284 79.0867 99.4963 79.1808C106.22 79.8266 114.434 79.4761 117.843 79.2944C118.221 79.8753 118.801 80.9396 118.982 82.3772C119.115 83.461 119.257 84.6033 118.639 85.46C117.461 87.0955 114.754 85.9727 113.854 87.5174C113.388 88.3059 113.637 89.393 113.854 90.373C114.213 91.9923 114.945 92.5634 114.651 93.0015C114.252 93.6018 112.799 92.7159 110.892 93.459C110.416 93.6408 109.668 93.9263 109.639 94.3741C109.565 95.3444 112.999 95.63 113.284 97.1162C113.501 98.2487 111.624 98.6284 110.549 100.657C108.982 103.626 111.345 106.024 109.979 108.879C109.066 110.794 107.101 111.592 105.651 112.193C101.834 113.754 98.292 112.868 92.7755 111.394C88.6446 110.291 85.4558 109.444 81.7231 106.939C77.6861 104.236 75.3519 101.153 74.4293 99.8583C71.6192 95.8798 70.5736 92.1675 70.2142 90.7202C69.4826 87.751 69.4437 85.3626 69.4178 83.5259C69.4081 82.6595 69.4178 81.4037 69.9876 76.2149C70.9523 67.4467 71.4444 66.4083 72.3768 65.9345Z" fill="#1A1A1A"/>
<path d="M70.7322 54.7716C73.3551 54.7716 75.4814 52.6402 75.4814 50.0111C75.4814 47.3819 73.3551 45.2506 70.7322 45.2506C68.1092 45.2506 65.9829 47.3819 65.9829 50.0111C65.9829 52.6402 68.1092 54.7716 70.7322 54.7716Z" fill="#1A1A1A"/>
<g filter="url(#filter0_d_1837_456)">
<path d="M70.0007 99.4952C69.8248 94.6341 68.4125 94.5528 66.2777 87.6543C65.6303 83.4357 66.2777 78.205 66.2777 78.205C66.2777 78.205 67.0428 74.6844 67.3994 73.2255C68.6523 68.0979 69.1197 68.5329 69.18 66.2486C68.8258 65.1048 60.9661 63.3583 58.0122 58C54.8318 52.2355 55.5122 47 55.5122 47C55.9676 45.4208 58.656 38.8457 63.0122 37C65.836 35.8042 69.734 35.7465 70.5122 36C73.5122 36 78.0544 39.1239 78.5122 38.5C79.3892 37.3075 74.802 29.6192 73.4069 29.0928C73.3419 29.0701 72.5714 28.6745 72.4847 28.4438C72.2558 27.8297 69.3686 27.4976 69.718 26.4968C70.6215 23.9037 69.9227 16.5504 66.3905 14.8997C65.0413 14.2693 64.4823 14.7795 62.9402 13.7397C61.3356 12.6544 61.1356 11.5561 59.755 10.2076C56.9191 7.44231 53.611 8.04345 53.4303 8.07919C50.9052 8.58935 51.0522 10.552 48.3031 11.2734C45.7081 11.9525 45.1732 10.3083 42.9542 11.1142C40.5014 12.0045 40.6291 14.2076 37.9835 15.5919C35.5982 16.8396 37.0029 15.7413 34.3212 16.7747C31.7648 17.7592 31.5576 19.6861 31.0685 23.7609C30.9625 24.6383 32.4274 30.6887 31.8925 31.5108C31.1528 32.6481 26.1677 28.3068 24.6835 29.1225C23.1222 29.9803 22.4693 30.8252 22.1537 31.5108C21.8139 32.2484 21.7441 34.1428 22.1537 36.4337C22.3898 37.7692 22.1537 40.4954 22.1537 40.4954C22.0235 42.2306 17.224 39.982 15.8145 42.4451C14.8917 44.0601 13.8605 46.6011 14.2869 49.0154C14.7423 51.6052 16.0073 52.3071 15.8145 54.039C15.6362 55.654 14.4869 55.4785 13.6509 57.4087C12.7015 59.5988 12.8606 62.8645 13.6774 65.2073C14.6435 67.9726 16.0868 68.1773 16.3566 70.6176C16.5446 72.3333 15.8844 72.7232 16.2482 74.2699C16.7373 76.3496 18.1974 76.772 18.195 78.205C18.195 79.365 17.2385 79.3455 17.024 80.681C16.718 82.5982 18.2071 85.6364 19.9467 86.582C20.8381 87.0662 21.5055 86.8484 21.9151 87.6543C22.3512 88.5154 21.8477 89.2693 22.226 90.2181C22.6741 91.3391 23.6644 90.9882 25.0137 91.976C26.5533 93.1036 26.5027 94.4716 27.8688 95.8038C28.6398 96.5577 29.8807 97.3148 31.8925 97.1589C32.6828 96.0151 33.7646 94.8355 34.7862 95.2645C35.5452 95.5829 35.7837 96.5837 36.3355 97.4253C37.8944 99.8071 41.282 99.037 44.8913 98.2539C48.3031 97.513 51.4642 96.171 52.0497 97.5455C52.2834 98.0915 52.0521 98.9396 52.5316 99.4952C52.946 99.9761 53.558 99.8461 53.7363 99.8201C55.9698 99.4952 61.4541 105.761 64.3382 105.514C66.632 105.315 70.1284 103.014 70.0007 99.4952Z" fill="#AA77FF"/>
</g>
<path d="M38.2215 15.5424C38.0852 15.6843 38.1087 15.7165 38.5465 16.2759C38.8094 16.6024 39.0765 17.0554 39.1513 17.2785L39.2845 17.6822L38.6024 17.7741C37.7727 17.8918 37.3471 18.1197 37.4414 18.403C37.4983 18.5747 37.5434 18.5768 38.3204 18.4138C39.3232 18.2113 40.7011 18.106 41.395 18.1846C42.7277 18.3332 43.8268 19.0405 44.8151 20.3939C45.0474 20.6985 45.3338 21.0573 45.4524 21.1728C45.5726 21.2971 45.7609 21.5549 45.876 21.7528C46.183 22.2806 46.8641 22.9519 47.6893 23.5253C48.0865 23.8011 48.4961 24.1474 48.5918 24.2851C48.6961 24.4213 48.8369 24.5611 48.9069 24.6034C48.9974 24.6603 49.0876 24.9715 49.2201 25.7296C49.4132 26.8859 49.3846 27.127 48.8327 28.3226C48.5802 28.8754 48.5803 28.8754 48.7675 29.1788C48.8678 29.343 49.0381 29.5494 49.1419 29.6312C49.6742 30.065 49.8964 30.6712 49.778 31.4277C49.621 32.527 48.6938 33.3158 47.0739 33.726L46.3464 33.9167L45.8289 33.3622C45.0914 32.5735 43.9878 32.1478 43.7556 32.5608C43.6388 32.7629 43.8571 32.9881 44.5882 33.4327C45.4404 33.956 45.7163 34.4083 45.9524 35.657L46.1438 36.65L45.6227 36.7411C45.2927 36.7988 45.008 36.9112 44.818 37.0534C44.431 37.3481 43.9513 38.086 43.8556 38.5115L43.7823 38.8604L42.9648 38.6944C41.3897 38.3882 40.0838 38.8535 39.4179 39.96C38.9046 40.8127 38.9975 41.9592 39.5552 41.6165C39.7814 41.477 40.1681 40.8726 40.2786 40.4809C40.3291 40.3085 40.5277 40.0113 40.7013 39.8265C41.0071 39.5278 41.098 39.4847 41.6973 39.38C42.3834 39.2601 42.9478 39.3605 43.274 39.6396C43.3574 39.7067 43.4812 39.7496 43.5681 39.7344C43.6549 39.7193 43.7525 39.7658 43.7996 39.8302C43.838 39.8962 43.9434 39.9414 44.0303 39.9262C44.2213 39.8928 44.728 39.1502 44.8584 38.7187C44.9858 38.2695 45.4166 37.7128 45.8129 37.4709C46.1458 37.2765 46.198 37.2674 46.8628 37.3329C47.802 37.4322 48.1644 37.5597 48.8377 38.0325C49.5212 38.5126 50.0582 39.1273 50.5209 39.9821C50.8473 40.57 50.8699 40.6479 50.9544 41.5415C50.9988 42.0515 51.0304 42.591 51.0218 42.747C51.0191 43.1925 50.8492 44.0125 50.7217 44.3073C50.6492 44.4563 50.5963 44.6654 50.6076 44.7815C50.6123 44.9623 50.6722 44.9973 50.9711 45.0177C51.2992 45.0512 51.3308 45.0275 51.5191 44.7221C51.6319 44.548 51.7206 44.2872 51.7235 44.1505C51.7249 44.0049 51.7563 43.6724 51.7812 43.4046C51.806 43.1368 51.7942 42.5575 51.7448 42.121C51.6804 41.4964 51.6828 41.3052 51.7911 41.259C52.4648 40.9142 53.5835 40.5553 53.9519 40.5636C54.9743 40.5757 56.275 40.848 56.7391 41.1485C57.12 41.3817 57.4532 41.4961 57.5814 41.4101C57.7515 41.3077 57.9855 40.6491 58.0734 40.0251C58.2151 38.992 59.2509 37.9027 60.2497 37.7282C60.6231 37.6629 61.3111 37.2974 61.2911 37.1828C61.2587 36.9977 60.6819 37.0258 59.9141 37.2417C59.0523 37.4832 58.4078 37.841 58.0091 38.2741C57.6405 38.6746 57.2441 39.4796 57.1551 39.9948L57.0814 40.4437L56.648 40.3196C55.0611 39.8429 53.1936 39.8603 52.0939 40.3795C51.8457 40.4955 51.622 40.5982 51.5959 40.6028C51.5699 40.6073 51.5155 40.3988 51.4709 40.1432C51.3939 39.7024 51.2905 39.5206 50.6854 38.7725C49.6087 37.4254 48.3564 36.7176 46.9492 36.6547C46.7228 36.6397 46.7095 36.6148 46.7436 36.3999C46.7741 36.2674 46.7273 35.7941 46.6472 35.3358L46.5039 34.516L47.2325 34.4341C48.5144 34.2919 49.4745 33.7426 50.283 32.6839C50.7638 32.0548 50.8864 31.4248 50.7139 30.4375C50.5784 29.6618 50.3865 29.332 49.8093 28.8969L49.4192 28.6108L49.6335 28.3008C50.1908 27.4949 50.3341 25.9074 49.946 24.9669L49.8109 24.6544L50.3667 24.5573C50.8965 24.4647 51.5861 24.2624 52.6466 23.8773C53.3024 23.6355 53.8391 23.2238 54.1054 22.7504C54.4131 22.2061 54.4022 21.99 54.0861 21.5637L53.8107 21.2122L53.4532 21.7833C53.0107 22.4783 52.2422 23.0487 51.1793 23.4706L50.4601 23.7597L49.5626 23.4896C49.0725 23.3481 48.433 23.0692 48.1411 22.8841C47.5967 22.5341 46.4067 21.3067 45.5207 20.1807C44.6215 19.0297 44.0754 18.5165 43.2207 18.03C42.6839 17.7241 41.7037 17.4412 41.365 17.5003C41.2607 17.5185 40.9491 17.5276 40.669 17.5129C40.1744 17.4994 40.1659 17.5018 40.1498 17.2049C40.127 16.8182 39.4805 15.9865 38.9069 15.6234C38.4544 15.3391 38.4166 15.3275 38.2216 15.5433L38.2215 15.5424Z" fill="white"/>
<path d="M35.1266 85.8106C35.0529 85.9022 35.0331 85.89 34.6876 85.6611C34.4855 85.523 34.2107 85.3906 34.0785 85.3597L33.8395 85.3051L33.8253 85.7237C33.8047 86.2333 33.6981 86.5055 33.5303 86.4667C33.4286 86.4433 33.4248 86.4161 33.4744 85.9355C33.5339 85.3157 33.5165 84.4752 33.4322 84.0604C33.2717 83.2635 32.8041 82.644 31.9721 82.1331C31.7843 82.0121 31.5624 81.8619 31.4895 81.7976C31.4114 81.7329 31.2529 81.6355 31.133 81.5786C30.813 81.4268 30.3896 81.0578 30.0141 80.5955C29.8336 80.3728 29.6118 80.1473 29.5275 80.0983C29.4435 80.0439 29.3553 79.9677 29.3272 79.9281C29.2894 79.877 29.1058 79.8424 28.6637 79.8111C27.9897 79.7686 27.853 79.8014 27.1986 80.2123C26.8958 80.4006 26.8958 80.4006 26.7113 80.3069C26.6115 80.2567 26.4835 80.167 26.4307 80.1094C26.1519 79.8153 25.7918 79.7198 25.3646 79.8401C24.7431 80.0059 24.3431 80.6177 24.1994 81.6243L24.1311 82.0767L24.4784 82.3542C24.9722 82.7496 25.2787 83.39 25.055 83.5571C24.9457 83.6408 24.8042 83.5232 24.508 83.1094C24.1598 82.6275 23.8848 82.4896 23.1554 82.4271L22.5752 82.3752L22.5524 82.6964C22.538 82.8998 22.4896 83.0792 22.4188 83.2033C22.2716 83.4565 21.8756 83.7942 21.637 83.8795L21.4411 83.9463L21.5824 84.4303C21.847 85.3636 21.6539 86.1838 21.057 86.6579C20.597 87.0234 19.9343 87.0409 20.0993 86.6814C20.1665 86.5356 20.4913 86.2627 20.7097 86.1706C20.8057 86.129 20.9649 85.9897 21.061 85.8727C21.215 85.6685 21.2346 85.6107 21.2608 85.2413C21.2908 84.8185 21.2014 84.4834 21.023 84.304C20.9797 84.2579 20.9481 84.1857 20.9519 84.1322C20.9557 84.0787 20.9235 84.0226 20.8839 83.9983C20.8439 83.9793 20.8121 83.9184 20.8159 83.8649C20.8242 83.7471 21.2214 83.3928 21.4615 83.2861C21.7119 83.1801 22.0068 82.8836 22.1231 82.6282C22.2158 82.4143 22.2181 82.3821 22.143 81.9841C22.033 81.4222 21.9394 81.2111 21.6303 80.8341C21.3164 80.4514 20.9335 80.166 20.4172 79.9411C20.0616 79.7814 20.0157 79.7728 19.4985 79.7791C19.2036 79.7851 18.8924 79.8007 18.8035 79.8159C18.5481 79.8462 18.0875 80.0018 17.9256 80.0979C17.8443 80.1514 17.7274 80.1969 17.6602 80.1975C17.5562 80.2062 17.5328 80.1723 17.5042 79.9927C17.4664 79.7964 17.4782 79.7757 17.6427 79.6421C17.7362 79.5627 17.8807 79.4922 17.959 79.4816C18.0424 79.4714 18.2313 79.431 18.3835 79.3988C18.5356 79.3665 18.8685 79.3363 19.1216 79.3381C19.4834 79.3369 19.5929 79.3232 19.6132 79.2547C19.7729 78.8249 19.9156 78.1249 19.89 77.9025C19.8253 77.2846 19.5957 76.5151 19.3972 76.2536C19.2419 76.0382 19.1575 75.8439 19.1996 75.7608C19.2487 75.6513 19.6132 75.4673 19.966 75.374C20.5504 75.2218 21.1166 74.5249 21.1603 73.9094C21.1766 73.6792 21.3473 73.2394 21.4142 73.2441C21.5221 73.2518 21.5386 73.6026 21.4581 74.0811C21.3684 74.6181 21.1996 75.0311 20.9738 75.3002C20.7649 75.549 20.3257 75.8407 20.0353 75.9277L19.782 76.0011L19.8777 76.2554C20.2406 77.1849 20.3361 78.3161 20.1005 79.0149C20.048 79.1725 20.0017 79.3145 20.0006 79.3306C19.9995 79.3466 20.1221 79.3661 20.2712 79.3767C20.5283 79.3949 20.6384 79.4457 21.1016 79.7637C21.9349 80.3285 22.4114 81.0407 22.527 81.8881C22.5484 82.0241 22.5634 82.0306 22.6847 81.9962C22.759 81.9691 23.033 81.9671 23.3004 81.986L23.7786 82.0199L23.7844 81.5738C23.7936 80.789 24.0543 80.1727 24.6158 79.6154C24.9493 79.284 25.3037 79.1693 25.8796 79.2101C26.3321 79.2422 26.532 79.3371 26.8141 79.6584L27.0002 79.876L27.1659 79.7264C27.5966 79.3373 28.4988 79.1484 29.06 79.3227L29.2469 79.3844L29.2712 79.0418C29.2943 78.7153 29.3713 78.285 29.5323 77.6186C29.6339 77.2062 29.8397 76.8549 30.0962 76.6633C30.3909 76.4421 30.5154 76.4348 30.7777 76.5987L30.9949 76.7427L30.6875 76.9958C30.314 77.3082 30.0303 77.8099 29.8484 78.4802L29.7232 78.934L29.9288 79.4597C30.0376 79.7471 30.2337 80.1161 30.3563 80.2808C30.5878 80.5877 31.3588 81.2288 32.0545 81.6924C32.7653 82.1624 33.0905 82.4599 33.4178 82.9457C33.6235 83.2508 33.8411 83.8257 33.8263 84.0345C33.8217 84.0987 33.8342 84.2879 33.8584 84.4564C33.8941 84.7548 33.8932 84.7601 34.0644 84.7508C34.2874 84.7397 34.8008 85.0774 35.0414 85.4011C35.23 85.6565 35.2388 85.6787 35.1261 85.8106L35.1266 85.8106Z" fill="white"/>
<path d="M51.9189 72.1295C51.8476 72.2322 51.8249 72.2214 51.4265 72.0151C51.1931 71.8901 50.8811 71.7778 50.7342 71.7581L50.4687 71.7238L50.4941 72.1624C50.5212 72.6968 50.4316 72.9912 50.2452 72.9666C50.1323 72.9519 50.1255 72.9239 50.1327 72.4171C50.1371 71.764 50.0364 70.8876 49.9043 70.4623C49.652 69.6452 49.0826 69.0425 48.1274 68.5879C47.9112 68.4794 47.6551 68.3436 47.5694 68.2833C47.4781 68.2231 47.2962 68.1365 47.16 68.0885C46.797 67.9603 46.3002 67.6152 45.8465 67.1678C45.6283 66.9525 45.365 66.7379 45.2684 66.6948C45.1717 66.6459 45.0683 66.5747 45.0338 66.536C44.9878 66.4862 44.7846 66.4676 44.3002 66.4769C43.5625 66.4966 43.4169 66.5439 42.7446 67.0353C42.4334 67.2608 42.4334 67.2608 42.2234 67.1804C42.1099 67.1375 41.9619 67.0559 41.8988 67.0008C41.5667 66.7201 41.1654 66.6546 40.7122 66.8209C40.0518 67.0531 39.676 67.7303 39.6176 68.7954L39.5873 69.2745L39.9923 69.5313C40.5683 69.8975 40.9643 70.5373 40.737 70.7331C40.6262 70.8309 40.4607 70.7215 40.098 70.3175C39.6721 69.8471 39.3594 69.7293 38.5594 69.7333L37.9228 69.7343L37.9292 70.0719C37.9333 70.2858 37.8981 70.4779 37.8331 70.6142C37.6976 70.8927 37.2994 71.2831 37.048 71.3949L36.8413 71.4833L37.0423 71.9754C37.4211 72.9252 37.2908 73.8003 36.6872 74.3524C36.2221 74.7779 35.5025 74.8592 35.6471 74.468C35.706 74.3092 36.033 73.9933 36.2617 73.8764C36.3621 73.8238 36.5219 73.6631 36.6152 73.5318C36.7629 73.3038 36.7786 73.2416 36.7712 72.8532C36.7627 72.4087 36.6327 72.0672 36.421 71.8967C36.3694 71.8527 36.3281 71.7803 36.327 71.724C36.3259 71.6677 36.2854 71.6122 36.2399 71.5905C36.1945 71.5745 36.1539 71.5139 36.1529 71.4577C36.1505 71.3338 36.5483 70.926 36.7993 70.7917C37.0615 70.6571 37.3537 70.3194 37.4554 70.0416C37.5354 69.8092 37.5348 69.7755 37.4143 69.3668C37.2398 68.7903 37.1175 68.5787 36.7443 68.2143C36.3653 67.8444 35.9208 67.5826 35.337 67.3968C34.9344 67.2638 34.8836 67.2591 34.3212 67.3149C34.0008 67.3492 33.6636 67.3951 33.5683 67.4194C33.2933 67.4754 32.807 67.6817 32.6402 67.7975C32.5569 67.861 32.4341 67.9197 32.361 67.9267C32.2487 67.9458 32.2199 67.9125 32.1713 67.7277C32.1111 67.5262 32.1219 67.5034 32.2879 67.3482C32.382 67.2564 32.5324 67.169 32.6166 67.1505C32.7064 67.1319 32.908 67.0718 33.0705 67.0236C33.233 66.9755 33.5924 66.9123 33.868 66.8901C34.2617 66.8544 34.3796 66.8296 34.3951 66.7562C34.527 66.292 34.6142 65.5472 34.5647 65.3173C34.4341 64.678 34.1093 63.8961 33.8677 63.6418C33.6778 63.4315 33.567 63.2365 33.6047 63.1458C33.6475 63.0267 34.0263 62.7999 34.4013 62.6689C35.0225 62.4543 35.571 61.6725 35.5586 61.0253C35.5539 60.7833 35.6969 60.3077 35.7702 60.3063C35.8884 60.304 35.9405 60.6689 35.8995 61.1764C35.8541 61.7459 35.7105 62.1934 35.491 62.496C35.2879 62.7757 34.8381 63.1221 34.5305 63.2406L34.262 63.3415L34.3909 63.598C34.8765 64.5344 35.0905 65.707 34.9021 66.4593C34.8603 66.629 34.8237 66.7817 34.8241 66.7986C34.8244 66.8155 34.9598 66.8242 35.1231 66.821C35.4047 66.8156 35.5295 66.8583 36.0646 67.1464C37.0266 67.6572 37.6146 68.3558 37.823 69.2301C37.8594 69.3701 37.8764 69.3754 38.0051 69.3279C38.0833 69.2926 38.3814 69.2644 38.6743 69.2588L39.1981 69.2487L39.1609 68.7822C39.0945 67.9615 39.3183 67.2929 39.8752 66.6574C40.206 66.2795 40.5806 66.1259 41.2114 66.1138C41.707 66.1043 41.9339 66.1844 42.2722 66.4932L42.496 66.7028L42.6617 66.5308C43.0926 66.0834 44.0562 65.8003 44.6841 65.9291L44.8935 65.9757L44.8866 65.6155C44.88 65.2722 44.9219 64.8154 45.0323 64.104C45.1027 63.6635 45.2925 63.277 45.553 63.0525C45.8523 62.7934 45.9871 62.774 46.2885 62.9202L46.5389 63.0499L46.229 63.3436C45.8528 63.7054 45.593 64.2565 45.4602 64.974L45.3681 65.4599L45.6431 65.9895C45.7895 66.2794 46.0388 66.6462 46.1883 66.8066C46.4701 67.1052 47.3718 67.7016 48.1742 68.1197C48.9936 68.5431 49.3765 68.8229 49.78 69.2993C50.0336 69.5985 50.3265 70.1784 50.3307 70.3978C50.332 70.4654 50.3639 70.6618 50.4067 70.8355C50.4745 71.1438 50.4741 71.1495 50.6595 71.1234C50.9012 71.0906 51.4929 71.3946 51.7863 71.7098C52.0165 71.9588 52.0281 71.9811 51.9183 72.1295L51.9189 72.1295Z" fill="white"/>
<path d="M62.9002 104.988C62.7753 104.993 62.7703 104.968 62.6968 104.525C62.657 104.264 62.5599 103.947 62.4877 103.817L62.3561 103.584L62.0201 103.867C61.6086 104.209 61.3192 104.314 61.2272 104.15C61.1712 104.051 61.1896 104.028 61.5997 103.731C62.1252 103.343 62.7664 102.737 63.0277 102.376C63.5307 101.685 63.6721 100.868 63.4636 99.8305C63.4209 99.5925 63.3762 99.306 63.3731 99.2013C63.3666 99.0922 63.3269 98.8946 63.2838 98.7568C63.1688 98.3894 63.1474 97.7848 63.2337 97.1536C63.2754 96.8498 63.2893 96.5105 63.266 96.4073C63.2471 96.3006 63.2422 96.1752 63.2525 96.1243C63.2648 96.0576 63.158 95.8838 62.8603 95.5016C62.4024 94.9229 62.2773 94.8346 61.4811 94.5909C61.114 94.4769 61.114 94.4769 61.0526 94.2605C61.0189 94.144 60.9955 93.9766 61.0018 93.8931C61.0276 93.4589 60.8395 93.0984 60.4348 92.8353C59.8532 92.4457 59.0859 92.5507 58.1981 93.1421L57.7965 93.405L57.8335 93.8831C57.8856 94.5637 57.6106 95.2641 57.3177 95.1994C57.173 95.1694 57.1614 94.9713 57.2675 94.4388C57.3888 93.816 57.2958 93.495 56.8132 92.857L56.4309 92.3479L56.1645 92.5554C55.9957 92.6868 55.8209 92.7738 55.6728 92.8034C55.3686 92.8618 54.8174 92.777 54.5773 92.6427L54.3826 92.5302L54.1091 92.986C53.5757 93.8584 52.797 94.2784 51.9934 94.126C51.374 94.0087 50.8777 93.4813 51.2776 93.3626C51.44 93.3147 51.8888 93.3871 52.1195 93.5002C52.2218 93.549 52.4462 93.5806 52.6072 93.5766C52.8782 93.5583 52.9375 93.5336 53.2439 93.2949C53.5947 93.0217 53.7902 92.7131 53.7998 92.4414C53.8042 92.3737 53.8374 92.2972 53.8818 92.2626C53.9262 92.2281 53.9464 92.1624 53.9364 92.113C53.9221 92.067 53.9462 91.9982 53.9906 91.9636C54.0883 91.8876 54.6533 91.9616 54.9112 92.0821C55.176 92.2114 55.6215 92.2429 55.9048 92.1579C56.1388 92.0827 56.1655 92.062 56.4204 91.7206C56.7774 91.2355 56.8735 91.0107 56.9416 90.4936C57.0107 89.9686 56.9539 89.4559 56.7528 88.8771C56.618 88.4751 56.5913 88.4316 56.2097 88.0149C55.9902 87.7788 55.7514 87.5364 55.6748 87.4747C55.4652 87.288 55.0087 87.0224 54.816 86.9583C54.7152 86.9296 54.5947 86.8665 54.5453 86.8121C54.4627 86.7336 54.472 86.6907 54.5909 86.541C54.7162 86.372 54.7408 86.3671 54.9646 86.407C55.0945 86.4272 55.2545 86.4953 55.3198 86.5516C55.3885 86.6124 55.5575 86.7378 55.6934 86.839C55.8293 86.9402 56.0952 87.1901 56.2782 87.3974C56.5427 87.6912 56.6331 87.7707 56.7012 87.7391C57.1519 87.5666 57.8004 87.1901 57.9548 87.0127C58.3883 86.5251 58.8197 85.7965 58.8786 85.4507C58.9331 85.1726 59.0228 84.9671 59.118 84.9429C59.239 84.9058 59.6475 85.0732 59.9772 85.2948C60.5212 85.6636 61.4757 85.6342 61.9864 85.2365C62.1774 85.0878 62.6439 84.9173 62.6889 84.975C62.7616 85.0684 62.5006 85.3287 62.0698 85.6C61.5866 85.9049 61.1424 86.0581 60.7685 86.0636C60.4229 86.0687 59.8761 85.9162 59.5969 85.7409L59.3552 85.5864L59.2271 85.8433C58.7684 86.7932 57.9579 87.6672 57.2427 87.9672C57.0818 88.0354 56.9376 88.0976 56.9243 88.108C56.911 88.1184 56.9852 88.232 57.0856 88.3608C57.2586 88.5831 57.2993 88.7085 57.3893 89.3096C57.5568 90.3858 57.3499 91.2752 56.7748 91.9659C56.6845 92.079 56.6905 92.0958 56.8056 92.1703C56.8807 92.2118 57.0819 92.4335 57.2619 92.6646L57.5838 93.0779L57.9351 92.7686C58.5523 92.2237 59.2217 92.0022 60.0642 92.0672C60.565 92.1056 60.9123 92.3134 61.3 92.8112C61.6046 93.2023 61.6764 93.4319 61.632 93.8878L61.5982 94.1926L61.8353 94.2221C62.4517 94.299 63.2557 94.9009 63.5289 95.4807L63.617 95.6762L63.9012 95.4549C64.1721 95.2439 64.563 95.0038 65.1986 94.6658C65.5935 94.4582 66.0166 94.3786 66.3525 94.4526C66.7392 94.5369 66.8356 94.6332 66.8992 94.9621L66.9453 95.2403L66.5246 95.1682C66.0094 95.0839 65.4125 95.206 64.7586 95.5297L64.3143 95.7472L64.0552 96.2846C63.9108 96.5756 63.7665 96.9949 63.7277 97.2108C63.6575 97.6153 63.7204 98.6945 63.8665 99.5875C64.0185 100.497 64.024 100.971 63.8843 101.58C63.7968 101.962 63.5081 102.544 63.3349 102.679C63.2816 102.721 63.1435 102.864 63.03 103.002C62.8239 103.241 62.8191 103.244 62.9511 103.377C63.1221 103.551 63.2334 104.207 63.1568 104.631C63.0954 104.964 63.0846 104.987 62.8999 104.988L62.9002 104.988Z" fill="white"/>
<path d="M16.01 42.0913C15.8764 42.1877 15.8912 42.2173 16.1732 42.7362C16.3438 43.0401 16.4996 43.4477 16.5293 43.6404L16.5813 43.9888L16.0025 43.9666C15.2977 43.9443 14.9118 44.0696 14.9489 44.3142C14.9712 44.4625 15.0083 44.4706 15.6761 44.4484C16.5367 44.4261 17.6942 44.5366 18.2581 44.6996C19.3414 45.011 20.1501 45.7448 20.7734 46.99C20.9217 47.2717 21.1072 47.6052 21.1889 47.7164C21.2705 47.835 21.3892 48.0722 21.456 48.2501C21.634 48.7245 22.1015 49.3693 22.7025 49.9549C22.9918 50.2366 23.2812 50.5775 23.3405 50.7035C23.4073 50.8295 23.5038 50.9637 23.5557 51.0082C23.6225 51.0675 23.6522 51.3343 23.6522 51.9718C23.6448 52.9428 23.5861 53.1355 22.9555 54.0324C22.6661 54.4474 22.6661 54.4474 22.7774 54.7217C22.8368 54.8699 22.948 55.0627 23.0222 55.1442C23.4006 55.5741 23.4971 56.1004 23.2894 56.7008C23 57.5754 22.1171 58.0868 20.7147 58.1906L20.0841 58.2425L19.7354 57.7162C19.2382 56.9676 18.385 56.4628 18.1327 56.7667C18.0066 56.915 18.155 57.1299 18.6966 57.5969C19.3273 58.1454 19.4905 58.5538 19.5053 59.6063L19.5202 60.4439H19.075C18.7931 60.4439 18.5408 60.4951 18.3627 60.584C17.9992 60.7693 17.4946 61.303 17.3536 61.6365L17.2424 61.9108L16.5887 61.6588C15.3273 61.1844 14.1773 61.3779 13.465 62.1858C12.916 62.8084 12.8269 63.7572 13.3389 63.557C13.5466 63.4755 13.9547 63.0375 14.1031 62.7336C14.1699 62.6001 14.3776 62.3859 14.5483 62.2599C14.8451 62.0598 14.9267 62.0375 15.4386 62.0375C16.0248 62.0375 16.4781 62.1999 16.7081 62.4741C16.7675 62.5408 16.864 62.5935 16.9381 62.5935C17.0123 62.5935 17.0865 62.6453 17.1162 62.7046C17.1385 62.7639 17.2194 62.8158 17.2935 62.8158C17.4568 62.8158 17.9843 62.2822 18.155 61.9486C18.3256 61.6002 18.7634 61.2074 19.1269 61.0665C19.4311 60.9554 19.4757 60.9554 20.0173 61.1036C20.7815 61.3186 21.0635 61.4742 21.5532 61.956C22.0503 62.4452 22.4064 63.0234 22.6661 63.7868C22.8516 64.3131 22.859 64.3798 22.7997 65.121C22.7626 65.5435 22.7106 65.9883 22.6809 66.1143C22.6142 66.4775 22.3545 67.1223 22.2061 67.3447C22.1245 67.4559 22.0503 67.6189 22.0429 67.7153C22.0206 67.8635 22.0651 67.9006 22.31 67.9599C22.5771 68.034 22.6067 68.0192 22.8071 67.7968C22.9258 67.6708 23.0371 67.4707 23.0593 67.3595C23.0816 67.2409 23.1558 66.9741 23.2152 66.7591C23.2745 66.5442 23.3487 66.0698 23.371 65.7066C23.4081 65.1877 23.4377 65.0321 23.5342 65.0098C24.1426 64.8245 25.122 64.6911 25.4262 64.7504C26.272 64.9061 27.3108 65.3137 27.6521 65.6251C27.934 65.8697 28.1937 66.0105 28.3124 65.9586C28.4683 65.8993 28.7576 65.3953 28.9209 64.8987C29.188 64.0759 30.2044 63.3347 31.0577 63.3347C31.3767 63.3347 32 63.1346 32 63.0382C32 62.8825 31.5177 62.8232 30.85 62.8899C30.1006 62.9641 29.5144 63.1642 29.1212 63.4607C28.7576 63.7349 28.3124 64.3353 28.164 64.743L28.0379 65.0988L27.6966 64.9357C26.4501 64.3205 24.8994 64.0685 23.9126 64.3353C23.69 64.3946 23.4897 64.4465 23.4674 64.4465C23.4452 64.4465 23.4303 64.2686 23.4303 64.0537C23.4303 63.6831 23.371 63.52 22.9777 62.8232C22.2803 61.5706 21.3447 60.8145 20.1872 60.5625C20.0017 60.518 19.9943 60.4958 20.0537 60.3253C20.0982 60.2216 20.1278 59.8287 20.1278 59.4433V58.7539L20.7437 58.791C21.8269 58.8577 22.7025 58.5464 23.526 57.7978C24.0157 57.353 24.2086 56.8564 24.2086 56.0262C24.2086 55.374 24.0973 55.0775 23.6819 54.6402L23.3999 54.3511L23.6225 54.1287C24.2012 53.5506 24.5499 52.2757 24.3645 51.4529L24.2977 51.1787H24.7725C25.2251 51.1787 25.8261 51.112 26.761 50.9489C27.3397 50.8451 27.8443 50.5857 28.1336 50.2373C28.4675 49.8371 28.4898 49.6592 28.2894 49.2663L28.1121 48.9402L27.733 49.3553C27.2655 49.8593 26.5458 50.2151 25.6035 50.4078L24.9654 50.5412L24.2606 50.1928C23.8748 50.0075 23.3851 49.6888 23.1699 49.4961C22.7692 49.1329 21.9605 47.9618 21.3892 46.9166C20.8105 45.8493 20.4321 45.3527 19.794 44.8338C19.3933 44.5077 18.6217 44.1371 18.3323 44.1371C18.2433 44.1371 17.9836 44.1 17.7536 44.0481C17.3455 43.9666 17.3381 43.9673 17.3677 43.7227C17.4048 43.404 16.9893 42.6331 16.5664 42.2551C16.2325 41.9586 16.2029 41.9438 16.01 42.092V42.0913Z" fill="white"/>
<path d="M60.1653 15.2562C59.903 15.5893 60.1499 15.859 61.1835 16.3826C61.6309 16.6047 62.0474 16.9061 62.0937 17.0489C62.14 17.2075 62.5102 17.6835 62.9113 18.1277C64.3615 19.73 64.2843 19.4762 63.6518 20.4598C62.6182 22.0621 62.3714 22.9346 62.2634 25.4571C62.14 27.9161 62.2325 28.5031 62.9113 29.4074L63.2816 29.9309H62.2325C61.0138 29.9309 59.4248 30.2799 58.8077 30.6765C57.4501 31.5491 56.0154 33.0245 56 33.5322C56 34.3095 56.5862 34.135 58.0981 32.8817C60.1344 31.2001 61.6772 30.6924 63.7907 31.0414C65.719 31.3587 66.7989 31.4222 66.7989 31.2159C66.7989 30.8669 66.1973 30.4386 65.5493 30.3275C64.4386 30.153 64.3769 30.1213 64.3615 29.566C64.346 29.2963 64.1609 28.4872 63.9295 27.7892C63.5901 26.6945 63.5438 26.3455 63.6055 25.2509C63.7135 23.6644 64.1763 22.0922 64.8397 21.1086L65.3488 20.3471L66.7527 20.3154C68.7273 20.2678 68.8816 20.1425 68.9896 18.6671C69.0204 18.0959 68.9896 17.969 68.8044 18.0008C67.2 18.3815 66.8298 18.3815 65.935 18.0008C65.4259 17.7945 64.3769 17.1282 63.5747 16.5412C61.5692 15.05 60.6281 14.6851 60.1653 15.2562Z" fill="white"/>
<path d="M37.5633 83.1079C37.4019 83.2481 37.5538 83.3617 38.1898 83.5821C38.4652 83.6757 38.7215 83.8026 38.75 83.8627C38.7784 83.9295 39.0063 84.1299 39.2531 84.3169C40.1455 84.9916 40.098 84.8847 39.7088 85.2988C39.0727 85.9735 38.9208 86.3409 38.8544 87.403C38.7784 88.4384 38.8354 88.6855 39.2531 89.0663L39.481 89.2867H38.8354C38.0854 89.2867 37.1076 89.4337 36.7278 89.6007C35.8924 89.968 35.0095 90.5893 35 90.803C35 91.1303 35.3608 91.0569 36.2911 90.5291C37.5443 89.8211 38.4936 89.6073 39.7943 89.7543C40.9809 89.8879 41.6455 89.9146 41.6455 89.8278C41.6455 89.6808 41.2752 89.5005 40.8765 89.4537C40.193 89.3802 40.155 89.3669 40.1455 89.1331C40.136 89.0195 40.0221 88.6788 39.8797 88.3849C39.6708 87.924 39.6424 87.7771 39.6803 87.3162C39.7468 86.6482 40.0316 85.9862 40.4398 85.5721L40.7531 85.2514L41.617 85.2381C42.8322 85.218 42.9271 85.1653 42.9936 84.544C43.0126 84.3036 42.9936 84.2501 42.8797 84.2635C41.8923 84.4238 41.6645 84.4238 41.1139 84.2635C40.8006 84.1766 40.155 83.8961 39.6613 83.6489C38.4272 83.021 37.8481 82.8674 37.5633 83.1079Z" fill="white"/>
<path d="M33.1119 38.686C33.1879 38.9598 33.3227 39.0505 33.8095 39.1667C34.143 39.2364 34.6225 39.2457 34.8985 39.205C35.5962 39.0631 37.0136 39.7224 37.7013 40.4756C38.5925 41.4864 38.5931 41.6094 37.7637 43.0626C36.7945 44.7689 36.714 45.2524 37.2165 46.3263C37.6846 47.3166 37.6907 47.5094 37.3504 49.5293C37.1035 51.0348 37.1843 51.5872 37.6073 51.6077C38.2585 51.6194 38.8663 48.7078 38.7531 46.1186C38.6909 44.692 38.7045 44.5766 39.1117 44.0544C39.3411 43.7522 39.7557 43.3368 40.0219 43.1536C40.423 42.8537 40.6144 42.5183 41.2341 41.0297C41.639 40.057 42.2343 38.4199 42.5865 37.4079C43.2616 35.3716 43.3213 34.4817 42.9121 33.1009C42.7884 32.6516 42.6892 32.1434 42.704 31.9421C42.7273 31.7616 42.584 31.235 42.3892 30.7907C42.0743 30.0544 41.9664 29.9403 41.281 29.6376C40.7954 29.4355 40.4705 29.3867 40.392 29.4924C40.3049 29.5772 40.5303 30.3627 40.8697 31.2476C41.2152 32.1178 41.5252 33.1979 41.5545 33.6251C41.6375 34.8356 41.1978 37.3848 40.6258 39.049L40.1005 40.5596L39.8334 39.9987C39.4571 39.2023 38.6688 38.6493 37.0233 37.9988C35.4367 37.3729 34.6948 37.2889 33.7959 37.6237C33.1704 37.8821 32.9888 38.1523 33.1113 38.6875L33.1119 38.686Z" fill="white"/>
<path d="M54.084 8.03507C53.9316 8.17451 54.4141 8.87175 54.8586 9.15065C55.5951 9.6197 56.0142 10.2789 56.3444 11.4832C56.8269 13.22 56.7253 14.2976 55.9888 15.1342C55.5316 15.654 54.8586 16.009 53.2713 16.5794L52.103 16.9851L51.176 16.1991C50.3759 15.5272 50.2236 15.4512 50.0966 15.616C49.8807 15.9202 50.0331 16.4653 50.4902 16.9597C51.0109 17.5302 51.4426 18.1641 51.4426 18.3542C51.4426 18.443 51.6712 18.9881 51.9506 19.5839C52.3824 20.5093 52.4839 20.6488 52.7379 20.6108C53.0173 20.5727 53.03 20.522 53.0173 19.6726C53.0046 19.1149 52.9157 18.6331 52.7887 18.3669C52.6617 18.1387 52.5855 17.9232 52.6236 17.8979C52.649 17.8598 53.0681 17.8091 53.5506 17.7711C54.884 17.657 56.0904 17.1626 56.7507 16.478L57.2968 15.8949L58.6174 15.9329C60.2556 15.9709 60.9921 15.7174 61.2842 15.0075C61.5381 14.399 61.5381 13.8665 61.2842 13.9679C60.5349 14.2468 59.2524 14.5384 58.5793 14.5891L57.7666 14.6272L57.8301 14.3102C57.8682 14.1328 57.8555 13.2961 57.8047 12.4594C57.7158 11.0776 57.665 10.8747 57.3095 10.2409C56.9285 9.56899 56.2555 8.96049 55.2523 8.37735C54.7697 8.09845 54.1856 7.92097 54.084 8.03507Z" fill="white"/>
<path d="M59.084 61.0351C58.9316 61.1745 59.4141 61.8718 59.8586 62.1506C60.5951 62.6197 61.0142 63.2789 61.3444 64.4832C61.8269 66.22 61.7253 67.2976 60.9888 68.1342C60.5316 68.654 59.8586 69.009 58.2713 69.5794L57.103 69.9851L56.176 69.1991C55.3759 68.5272 55.2236 68.4512 55.0966 68.616C54.8807 68.9202 55.0331 69.4653 55.4902 69.9597C56.0109 70.5302 56.4426 71.1641 56.4426 71.3542C56.4426 71.443 56.6712 71.9881 56.9506 72.5839C57.3824 73.5093 57.4839 73.6488 57.7379 73.6108C58.0173 73.5727 58.03 73.522 58.0173 72.6726C58.0046 72.1149 57.9157 71.6331 57.7887 71.3669C57.6617 71.1387 57.5855 70.9232 57.6236 70.8979C57.649 70.8598 58.0681 70.8091 58.5506 70.7711C59.884 70.657 61.0904 70.1626 61.7507 69.478L62.2968 68.8949L63.6174 68.9329C65.2556 68.9709 65.9921 68.7174 66.2842 68.0075C66.5381 67.399 66.5381 66.8665 66.2842 66.9679C65.5349 67.2468 64.2524 67.5384 63.5793 67.5891L62.7666 67.6272L62.8301 67.3102C62.8682 67.1328 62.8555 66.2961 62.8047 65.4594C62.7158 64.0776 62.665 63.8747 62.3095 63.2409C61.9285 62.569 61.2555 61.9605 60.2523 61.3773C59.7697 61.0985 59.1856 60.921 59.084 61.0351Z" fill="white"/>
<path d="M56.9828 72.9433C56.7969 73.1134 57.3856 73.9641 57.9279 74.3044C58.8265 74.8767 59.3378 75.681 59.7406 77.1503C60.3294 79.2693 60.2054 80.584 59.3068 81.6049C58.749 82.239 57.9279 82.6721 55.9912 83.3681L54.5658 83.8631L53.4348 82.9041C52.4587 82.0843 52.2728 81.9915 52.1178 82.1926C51.8544 82.5638 52.0404 83.2289 52.5981 83.8321C53.2334 84.5281 53.7601 85.3015 53.7601 85.5335C53.7601 85.6418 54.039 86.3069 54.3799 87.0338C54.9067 88.1629 55.0306 88.3331 55.3405 88.2866C55.6813 88.2402 55.6968 88.1784 55.6813 87.1421C55.6658 86.4615 55.5574 85.8738 55.4024 85.549C55.2475 85.2706 55.1546 85.0076 55.201 84.9767C55.232 84.9303 55.7433 84.8684 56.3321 84.822C57.9589 84.6828 59.4308 84.0796 60.2364 83.2444L60.9026 82.5329L62.514 82.5793C64.5126 82.6257 65.4112 82.3164 65.7676 81.4502C66.0775 80.7078 66.0775 80.0582 65.7676 80.1819C64.8535 80.5222 63.2886 80.8779 62.4675 80.9398L61.4759 80.9862L61.5534 80.5995C61.5998 80.383 61.5844 79.3621 61.5224 78.3413C61.4139 76.6554 61.352 76.4079 60.9181 75.6346C60.4533 74.8148 59.6322 74.0724 58.4082 73.3609C57.8194 73.0206 57.1067 72.8041 56.9828 72.9433Z" fill="white"/>
<path d="M24.3787 34.5265C24.1355 34.6765 24.1576 34.7295 24.5827 35.6598C24.8413 36.2054 25.0614 36.9283 25.0893 37.2647L25.1368 37.8725L24.1368 37.7632C22.9183 37.6384 22.2346 37.8074 22.269 38.2342C22.2895 38.4929 22.3527 38.5115 23.5124 38.555C25.0062 38.622 26.9981 38.9546 27.9551 39.3052C29.7939 39.9754 31.1054 41.3414 32.0331 43.5677C32.2558 44.0721 32.5364 44.6707 32.6642 44.8727C32.7912 45.0874 32.9679 45.5115 33.0618 45.8268C33.3124 46.6676 34.0435 47.8382 35.0132 48.9228C35.4802 49.4446 35.9398 50.0687 36.0273 50.2935C36.1276 50.5192 36.2783 50.7627 36.3629 50.8458C36.4713 50.9564 36.4902 51.4207 36.4123 52.5212C36.2809 54.1967 36.1558 54.5222 34.9536 55.9934C34.4016 56.6745 34.4016 56.6745 34.5609 57.1617C34.6457 57.4249 34.8149 57.7712 34.9335 57.9211C35.5366 58.7097 35.6395 59.6301 35.2062 60.6412C34.5981 62.1157 33.0059 62.8905 30.5637 62.8978L29.4647 62.9101L28.9248 61.9588C28.155 60.6054 26.7384 59.6294 26.2642 60.1231C26.0276 60.3636 26.2584 60.7529 27.1398 61.6255C28.1654 62.6497 28.3984 63.3748 28.2955 65.1938L28.219 66.6417L27.4477 66.5871C26.9592 66.5525 26.5159 66.6099 26.1965 66.7417C25.544 67.017 24.6047 67.8766 24.3198 68.4352L24.0934 68.895L22.9917 68.3798C20.8644 67.4062 18.8483 67.5993 17.5156 68.9069C16.4883 69.9145 16.2182 71.5416 17.1296 71.2588C17.4995 71.1435 18.26 70.4372 18.5542 69.9307C18.6862 69.7086 19.0723 69.3642 19.3833 69.1676C19.9219 68.8584 20.0661 68.83 20.953 68.8928C21.9685 68.9646 22.7341 69.3004 23.0991 69.8021C23.1938 69.9245 23.3545 70.0272 23.483 70.0363C23.6116 70.0454 23.7338 70.1441 23.778 70.2501C23.8093 70.3552 23.9431 70.4547 24.0716 70.4638C24.3544 70.4838 25.3336 69.6271 25.6699 69.0721C26.0082 68.4916 26.8145 67.867 27.4616 67.6684C28.0022 67.5137 28.0794 67.5192 28.9997 67.8415C30.2974 68.3063 30.7669 68.6095 31.5565 69.5014C32.358 70.4069 32.9044 71.4487 33.2611 72.7986C33.5182 73.7299 33.5229 73.846 33.3295 75.1184C33.2136 75.8432 33.0694 76.6047 33.0025 76.8186C32.8425 77.4375 32.3138 78.519 32.0296 78.8847C31.8746 79.0666 31.7262 79.3391 31.7015 79.5045C31.6449 79.7577 31.7175 79.8272 32.1344 79.9595C32.5881 80.1203 32.6414 80.0983 33.0156 79.7389C33.2367 79.5359 33.4539 79.2041 33.5061 79.0148C33.5591 78.8128 33.7202 78.3612 33.8493 77.9974C33.9784 77.6336 34.1649 76.8237 34.2478 76.1993C34.3755 75.3081 34.4459 75.043 34.6157 75.0164C35.6924 74.7711 37.4055 74.6607 37.9253 74.8004C39.3717 75.1728 41.1216 76.0039 41.6749 76.5832C42.1335 77.0401 42.5662 77.315 42.7782 77.24C43.0554 77.1567 43.6183 76.322 43.9617 75.4846C44.525 74.0969 46.3766 72.9418 47.8548 73.0463C48.4076 73.0854 49.5118 72.8163 49.5236 72.6499C49.5426 72.3812 48.7143 72.2197 47.5492 72.2531C46.2419 72.2892 45.2019 72.5629 44.4844 73.0266C43.821 73.4555 42.9764 74.4375 42.6696 75.1231L42.4076 75.7219L41.8362 75.3986C39.7517 74.1837 37.0959 73.5585 35.3537 73.8983C34.9608 73.9734 34.6074 74.0384 34.5688 74.0357C34.5302 74.033 34.5263 73.724 34.5525 73.3529C34.5978 72.7131 34.5148 72.4243 33.9186 71.1732C32.8633 68.925 31.3346 67.5051 29.3601 66.9281C29.0442 66.8286 29.034 66.7893 29.1577 66.5023C29.2475 66.3286 29.3469 65.654 29.3939 64.9885L29.4781 63.7984L30.5405 63.9379C32.4092 64.1858 33.964 63.7556 35.4823 62.5641C36.385 61.8563 36.7799 61.0225 36.8813 59.5893C36.9609 58.4632 36.8043 57.9377 36.1379 57.1317L35.6847 56.5981L36.0975 56.2415C37.1708 55.3142 37.9306 53.1559 37.7097 51.7127L37.6275 51.2311L38.4502 51.2893C39.2343 51.3447 40.2837 51.3032 41.9233 51.1363C42.9386 51.028 43.8444 50.642 44.3883 50.076C45.0157 49.4259 45.0759 49.1215 44.7768 48.4187L44.5094 47.8339L43.8019 48.504C42.9305 49.3169 41.6401 49.843 39.9841 50.0602L38.8623 50.2124L37.6836 49.5246C37.0378 49.1573 36.2283 48.5471 35.8791 48.188C35.2293 47.5118 33.9712 45.3908 33.109 43.5165C32.2367 41.6028 31.6417 40.699 30.5996 39.725C29.9453 39.1129 28.6537 38.3785 28.1523 38.343C27.9981 38.3321 27.5527 38.2363 27.1605 38.1185C26.4635 37.9278 26.4506 37.9281 26.5318 37.5095C26.635 36.9637 26.0093 35.582 25.3228 34.8775C24.7805 34.3247 24.7309 34.2955 24.3786 34.5278L24.3787 34.5265Z" fill="white"/>
<path d="M44.8762 48.3326C44.5714 48.8016 44.5968 49.6763 44.9397 50.4496C45.1302 50.906 45.2064 51.3497 45.2191 52.2751C45.2445 53.5555 45.181 53.8344 44.4064 55.6599C44.127 56.3191 44.1016 56.4586 44.2413 56.6741C44.3302 56.8136 44.5206 56.9517 44.6476 56.9771C45.1302 57.0658 46.5651 58.0052 47.3017 58.7278C47.7207 59.1335 48.4827 60.0209 48.9906 60.7054C51.0097 63.3676 51.9113 65.6115 52.2034 68.6286C52.3304 69.8836 52.3177 70.0992 52.0129 71.5443C51.8351 72.4064 51.5812 73.3572 51.4415 73.6487C50.9081 74.8657 49.1684 77.1096 48.0509 78.0477C47.7588 78.2886 46.7302 78.8717 45.7651 79.3661C44.381 80.0634 44 80.3042 44 80.5071C44 80.7352 44.0762 80.7593 44.8 80.7467C46.4255 80.7213 48.6096 79.2634 50.4637 76.9942L50.9462 76.3857L52.1145 76.9942C53.0161 77.476 53.3209 77.7042 53.486 78.0464C53.8542 78.769 54.9082 79.9987 55.213 80.0367C55.6448 80.1001 55.6828 79.7705 55.3654 78.7564C55.1622 78.1225 54.9463 77.7295 54.6543 77.4506C54.0574 76.8801 52.7113 76.0054 52.432 76.0054C52.305 76.0054 52.1653 75.942 52.1272 75.8786C52.0891 75.8026 51.9367 75.7519 51.797 75.7519C51.5685 75.7519 51.5685 75.7265 51.8478 75.2701C52.2288 74.649 52.6986 73.5461 52.6986 73.2545C52.6986 73.1277 52.8129 72.6967 52.9526 72.291C53.1685 71.6952 53.2066 71.2515 53.2066 69.7049C53.2066 68.6654 53.1558 67.6132 53.0923 67.3596C52.9907 66.9033 52.9907 66.8906 53.9939 65.9398C55.0479 64.9256 55.2892 64.7735 56.3813 64.3552C56.8511 64.1777 57.1191 64.1397 57.2842 64.2157C57.4111 64.2918 57.6143 64.3045 57.7413 64.2537C58.0715 64.1397 58.6683 63.7086 58.6683 63.5945C58.6683 63.4551 57.3604 63.2015 56.6365 63.2015C55.6841 63.2015 53.5253 64.3932 53.0555 65.1919C52.7507 65.6989 52.7253 65.6863 52.319 64.4819C52.1793 64.0382 51.9761 63.5565 51.8872 63.4044C51.7856 63.2649 51.684 62.9987 51.6332 62.8212C51.5951 62.6438 51.0999 61.9085 50.5538 61.1732L49.5379 59.8421L49.9697 59.3984C50.1983 59.1575 50.5157 58.7392 50.6554 58.473C50.8078 58.2194 51.0491 57.7884 51.2015 57.5222C51.3538 57.2687 51.5062 56.7996 51.5443 56.4827L51.6205 55.9122L52.6872 55.8235C53.6142 55.7474 53.8428 55.7728 54.4015 56.0009C54.7571 56.1531 55.2524 56.4193 55.4936 56.6094C56.2302 57.1799 56.446 57.1926 56.827 56.6855C57.1064 56.3179 57.1318 56.2038 57.0175 55.9883C56.9413 55.8361 56.7254 55.6967 56.5349 55.646C56.3445 55.608 56.027 55.4939 55.8111 55.4051C54.846 54.9868 53.5888 54.7079 52.6745 54.7079H51.7221L51.6332 53.9346C51.5951 53.5036 51.557 52.8951 51.557 52.5908C51.557 51.7414 51.3031 51.3104 50.1856 50.2329C49.2967 49.3962 49.0808 49.2567 48.6998 49.2567C48.4585 49.2567 48.2554 49.3074 48.2554 49.3835C48.2554 49.4469 48.5728 49.8399 48.9665 50.2329C49.7792 51.0442 50.0713 51.6147 50.3506 52.9204C50.6427 54.2895 50.6046 55.5446 50.2364 56.5334C49.9824 57.2306 49.1316 58.6758 48.8903 58.8279C48.7633 58.904 46.6934 56.4954 46.3124 55.8488C46.0077 55.3164 45.9696 55.1896 46.1093 54.9488C46.3886 54.429 46.2616 51.5513 45.8934 49.8906C45.4362 47.8749 45.3092 47.6848 44.8775 48.3313L44.8762 48.3326Z" fill="white"/>
<path d="M35.4287 17.2047C35.2128 17.4709 35.416 17.6864 36.2668 18.1048C36.635 18.2823 36.9779 18.5231 37.016 18.6372C37.0541 18.764 37.3589 19.1443 37.689 19.4993C38.8827 20.7797 38.8192 20.5768 38.2986 21.3628C37.4478 22.6432 37.2446 23.3404 37.1557 25.3561C37.0541 27.321 37.1303 27.7901 37.689 28.5127L37.9938 28.931H37.1303C36.1271 28.931 34.8191 29.2099 34.3112 29.5269C33.1937 30.2241 32.0127 31.4031 32 31.8087C32 32.4299 32.4826 32.2905 33.727 31.289C35.4033 29.9452 36.6731 29.5395 38.4129 29.8184C40.0002 30.072 40.8891 30.1227 40.8891 29.9579C40.8891 29.679 40.3939 29.3367 39.8605 29.248C38.9462 29.1085 38.8954 29.0832 38.8827 28.6395C38.87 28.424 38.7176 27.7774 38.5272 27.2196C38.2478 26.3449 38.2097 26.066 38.2605 25.1913C38.3494 23.9236 38.7303 22.6673 39.2764 21.8813L39.6954 21.2728L40.851 21.2474C42.4765 21.2094 42.6035 21.1093 42.6923 19.9303C42.7177 19.4739 42.6923 19.3725 42.54 19.3979C41.2193 19.7021 40.9145 19.7021 40.178 19.3979C39.7589 19.2331 38.8954 18.7006 38.2351 18.2316C36.5842 17.0399 35.8096 16.7483 35.4287 17.2047Z" fill="white"/>
<path d="M50.7494 80.2838C50.6732 80.6134 51.0415 82.3755 51.5367 84.0108C51.9431 85.3293 52.032 86.2293 51.8542 86.9266C51.5367 88.0802 50.2669 88.9549 48.7176 89.0817C48.0573 89.1324 47.7398 89.069 46.7493 88.7267C46.089 88.4985 45.4794 88.207 45.3778 88.0675C45.289 87.9407 45.1493 87.8393 45.0858 87.8393C45.0096 87.8393 44.6032 88.1689 44.1715 88.5746C42.7492 89.893 40.7174 90.717 38.1142 91.0213C36.3744 91.2241 35.2062 91.11 33.6188 90.5776C31.7394 89.9437 30.914 89.4874 29.7076 88.4098C29.1108 87.89 28.552 87.459 28.4377 87.459C28.3361 87.459 28.171 87.5478 28.0822 87.6618C27.9425 87.8393 27.9679 87.9661 28.2599 88.5239C28.6409 89.2592 29.4155 89.8423 30.914 90.5396C31.6505 90.8818 31.7762 90.9832 31.7635 91.2621C31.7635 91.4396 31.8029 91.9214 31.841 92.3397C31.9553 93.4806 31.7394 93.7976 30.1647 94.7864C28.8441 95.5977 28.5901 95.9146 29.06 96.1809C29.3647 96.3457 31.0029 96.2189 31.5616 95.9907C31.9172 95.8386 32.1585 95.585 32.4886 95.0399L32.9458 94.292L32.895 92.9102L32.8569 91.541L33.3013 91.7312C33.5426 91.8453 34.0633 91.9847 34.4442 92.0481C35.3585 92.2129 38.9777 92.0862 40.0317 91.8453C41.8095 91.4523 44.6159 90.3494 45.0477 89.855C45.2636 89.6268 45.289 89.6268 45.6064 89.8423C46.3049 90.324 47.0541 90.5015 48.3748 90.5015C49.4287 90.5015 49.797 90.4508 50.4954 90.1846C51.6002 89.7663 51.8669 89.5888 52.4764 88.8155L52.9844 88.1816V86.9633C52.9844 86.1267 52.8955 85.3534 52.6796 84.4786C52.5145 83.7814 52.3495 82.932 52.2987 82.6024C52.2098 81.8798 51.8415 80.9924 51.3844 80.3966C51.0034 79.9022 50.851 79.8768 50.7494 80.2825V80.2838Z" fill="white"/>
<circle cx="25" cy="43" r="2" fill="white"/>
<circle cx="29" cy="55" r="2" fill="white"/>
<circle cx="40" cy="59" r="2" fill="white"/>
<circle cx="36" cy="34" r="2" fill="white"/>
<circle cx="46" cy="43" r="2" fill="white"/>
<circle cx="19" cy="52" r="2" fill="white"/>
<circle cx="26" cy="74" r="2" fill="white"/>
<circle cx="38" cy="79" r="2" fill="white"/>
<circle cx="53" cy="60" r="2" fill="white"/>
<circle cx="56" cy="26" r="2" fill="white"/>
<circle cx="43" cy="26" r="2" fill="white"/>
<circle cx="46" cy="15" r="2" fill="white"/>
<defs>
<filter id="filter0_d_1837_456" x="0" y="0" width="91.6228" height="123.521" filterUnits="userSpaceOnUse" color-interpolation-filters="sRGB">
<feFlood flood-opacity="0" result="BackgroundImageFix"/>
<feColorMatrix in="SourceAlpha" type="matrix" values="0 0 0 0 0 0 0 0 0 0 0 0 0 0 0 0 0 0 127 0" result="hardAlpha"/>
<feOffset dy="5"/>
<feGaussianBlur stdDeviation="6.5"/>
<feComposite in2="hardAlpha" operator="out"/>
<feColorMatrix type="matrix" values="0 0 0 0 0.666667 0 0 0 0 0.466667 0 0 0 0 1 0 0 0 0.65 0"/>
<feBlend mode="normal" in2="BackgroundImageFix" result="effect1_dropShadow_1837_456"/>
<feBlend mode="normal" in="SourceGraphic" in2="effect1_dropShadow_1837_456" result="shape"/>
</filter>
<linearGradient id="paint0_linear_1837_456" x1="98.176" y1="46.2325" x2="148.169" y2="106.64" gradientUnits="userSpaceOnUse">
<stop stop-color="#AA77FF"/>
<stop offset="1" stop-color="white"/>
</linearGradient>
</defs>
</svg>
